<svg width="102" height="102" viewBox="0 0 102 102" fill="none" xmlns="http://www.w3.org/2000/svg">
    <path d="M101 51C101 78.6142 78.6142 101 51 101C23.3858 101 1 78.6142 1 51C1 23.3858 23.3858 1 51 1C78.6142 1 101 23.3858 101 51Z" fill="white" fill-opacity="0.81"/>
    <path fill-rule="evenodd" clip-rule="evenodd" d="M102 51C102 79.1665 79.1665 102 51 102C22.8335 102 0 79.1665 0 51C0 22.8335 22.8335 0 51 0C79.1665 0 102 22.8335 102 51ZM51 101C78.6142 101 101 78.6142 101 51C101 23.3858 78.6142 1 51 1C23.3858 1 1 23.3858 1 51C1 78.6142 23.3858 101 51 101Z" fill="#704DFF"/>
    <path d="M22.9226 61.856C22.7626 61.856 22.4426 61.76 21.9626 61.568L9.53062 56.144C9.37062 55.952 9.29062 55.712 9.29062 55.424C9.29062 55.136 9.45062 54.896 9.77062 54.704L22.9226 48.176C23.1786 48.464 23.3066 48.736 23.3066 48.992C23.3066 49.216 23.2106 49.376 23.0186 49.472L10.8746 55.472L23.4986 60.848C23.4986 61.2 23.4346 61.456 23.3066 61.616C23.1786 61.776 23.0506 61.856 22.9226 61.856Z" fill="#704DFF"/>
    <path d="M36.3334 68.48C34.6374 68.48 33.2454 68.208 32.1574 67.664C31.0694 67.12 30.1894 65.968 29.5174 64.208C28.8454 62.448 28.5094 59.856 28.5094 56.432C28.5094 53.584 28.8934 51.2 29.6614 49.28C30.4614 47.328 31.5174 45.888 32.8294 44.96C34.1734 44 35.6614 43.52 37.2934 43.52C38.2534 43.52 39.0854 43.616 39.7894 43.808C40.5254 43.968 41.1974 44.256 41.8054 44.672V33.44C41.8054 33.12 41.8854 32.928 42.0454 32.864C42.2054 32.768 42.5254 32.72 43.0054 32.72V67.04C42.2054 67.488 41.2134 67.84 40.0294 68.096C38.8774 68.352 37.6454 68.48 36.3334 68.48ZM36.6694 67.328C38.8454 67.328 40.5734 66.928 41.8534 66.128L41.8054 46.016C41.1654 45.504 40.5414 45.152 39.9334 44.96C39.3254 44.768 38.4934 44.672 37.4374 44.672C35.9654 44.672 34.6374 45.12 33.4534 46.016C32.3014 46.912 31.3734 48.256 30.6694 50.048C29.9974 51.808 29.6614 53.936 29.6614 56.432C29.6614 59.6 29.9494 61.968 30.5254 63.536C31.1014 65.104 31.8694 66.128 32.8294 66.608C33.7894 67.056 35.0694 67.296 36.6694 67.328Z" fill="#704DFF"/>
    <path d="M55.3354 34.4C58.1194 34.4 60.1194 35.232 61.3354 36.896C62.5834 38.528 63.2074 40.608 63.2074 43.136C63.2074 46.368 62.4874 48.848 61.0474 50.576C59.6394 52.272 57.6074 53.12 54.9514 53.12H50.7754V67.52C50.7754 67.744 50.7274 67.888 50.6314 67.952C50.5354 67.984 50.1994 68 49.6234 68V34.88C49.6234 34.56 49.7834 34.4 50.1034 34.4H55.3354ZM54.9034 51.968C57.3034 51.968 59.0954 51.184 60.2794 49.616C61.4634 48.048 62.0554 45.888 62.0554 43.136C62.0554 40.864 61.5274 39.04 60.4714 37.664C59.4154 36.256 57.6234 35.552 55.0954 35.552H50.7754V51.968H54.9034Z" fill="#704DFF"/>
    <path d="M74.0947 31.76C74.1587 31.536 74.2707 31.408 74.4307 31.376C74.5907 31.312 74.9107 31.28 75.3907 31.28L64.5427 68.528C64.4787 68.72 64.3507 68.832 64.1587 68.864C63.9667 68.928 63.6467 68.96 63.1987 68.96L74.0947 31.76Z" fill="#704DFF"/>
    <path d="M79.0106 62C78.7546 61.712 78.6266 61.44 78.6266 61.184C78.6266 60.96 78.7226 60.8 78.9146 60.704L91.0586 54.704L78.4346 49.328C78.4346 48.976 78.4986 48.72 78.6266 48.56C78.7546 48.4 78.8826 48.32 79.0106 48.32C79.1706 48.32 79.4906 48.416 79.9706 48.608L92.4026 54.032C92.5626 54.224 92.6426 54.464 92.6426 54.752C92.6426 55.04 92.4826 55.28 92.1626 55.472L79.0106 62Z" fill="#704DFF"/>
</svg>
